<svg width="24" height="22" viewBox="0 0 24 22" fill="none" xmlns="http://www.w3.org/2000/svg">
<path d="M12.8329 1.68129C14.0865 0.631719 15.7159 0 17.4 0C21.096 0 24 2.90136 24 6.59401C24 11.1222 19.9267 14.8125 13.7552 20.4037L13.74 20.4174L12.6703 21.3904C12.2899 21.7363 11.7091 21.7374 11.3274 21.3929L10.26 20.4294L10.2126 20.3864C4.05916 14.7996 0 11.1143 0 6.59401C0 2.90136 2.904 0 6.6 0C8.28406 0 9.91347 0.631719 11.1671 1.68129C11.6391 2.07639 12.3609 2.07639 12.8329 1.68129Z" fill="url(#paint0_linear_4038_2157)"/>
<defs>
<linearGradient id="paint0_linear_4038_2157" x1="2.4" y1="-1.65" x2="20.1284" y2="25.2516" gradientUnits="userSpaceOnUse">
<stop stop-color="#FFDB5A"/>
<stop offset="1" stop-color="#FF825A"/>
</linearGradient>
</defs>
</svg>
