<svg width="24" height="22" viewBox="0 0 24 22" fill="none" xmlns="http://www.w3.org/2000/svg">
<path d="M17.4 0C15.7159 0 14.0865 0.631719 12.8329 1.68129C12.3609 2.07639 11.6391 2.07639 11.1672 1.68129C9.91347 0.631719 8.28406 0 6.6 0C2.904 0 0 2.90136 0 6.59401C0 11.1259 4.08 14.8185 10.26 20.4294L11.3274 21.3929C11.7091 21.7374 12.2899 21.7363 12.6703 21.3904L13.74 20.4174C19.92 14.8185 24 11.1259 24 6.59401C24 2.90136 21.096 0 17.4 0ZM12.12 18.643C12.0537 18.7093 11.9463 18.7093 11.88 18.643C6.168 13.4757 2.4 10.0589 2.4 6.59401C2.4 4.19619 4.2 2.39782 6.6 2.39782C8.43321 2.39782 10.2374 3.66871 11.228 4.50698C11.6677 4.87902 12.3435 4.87819 12.7825 4.5054C13.7697 3.66711 15.5671 2.39782 17.4 2.39782C19.8 2.39782 21.6 4.19619 21.6 6.59401C21.6 10.0589 17.832 13.4757 12.12 18.643Z" fill="#D6D6D6"/>
</svg>
