<svg width="18" height="18" viewBox="0 0 18 18" fill="none" xmlns="http://www.w3.org/2000/svg">
    <path fill-rule="evenodd" clip-rule="evenodd"
          d="M6 0C2.68629 0 0 2.68629 0 6V12C0 15.3137 2.68629 18 6 18H12C15.3137 18 18 15.3137 18 12V6C18 2.68629 15.3137 0 12 0H6ZM15.2639 6.76281C15.6852 6.4057 15.7372 5.77467 15.3801 5.35338C15.023 4.93209 14.392 4.88007 13.9707 5.23719L7.53909 10.6891L4.64662 8.23719C4.22533 7.88007 3.5943 7.93209 3.23719 8.35338C2.88007 8.77467 2.93209 9.4057 3.35338 9.76281L6.89248 12.7628L7.53909 13.3109L8.18571 12.7628L15.2639 6.76281Z"
          fill="#4A628A"/> </svg>