<svg width="26" height="26" viewBox="0 0 26 26" fill="none" xmlns="http://www.w3.org/2000/svg">
<path d="M13 0C5.8203 0 0 5.8203 0 13C0 20.1797 5.8203 26 13 26C20.1797 26 26 20.1797 26 13C26 5.8203 20.1797 0 13 0ZM11.3435 18.202C10.9529 18.5925 10.3198 18.5925 9.92926 18.202L5.56103 13.8337C5.10056 13.3733 5.10056 12.6267 5.56104 12.1662C6.02106 11.7062 6.76674 11.7057 7.2274 12.165L9.92926 14.8594C10.3199 15.249 10.9523 15.2485 11.3425 14.8584L18.7673 7.43361C19.2302 6.97067 19.9812 6.972 20.4425 7.43657C20.9015 7.89883 20.9002 8.64525 20.4395 9.10588L11.3435 18.202Z" fill="#B3B3B3"/>
</svg>
