<svg width="18" height="17" viewBox="0 0 18 17" fill="none" xmlns="http://www.w3.org/2000/svg">
<path d="M8.05179 14.0225C8.3693 13.8311 8.76661 13.8311 9.08411 14.0225L12.7285 16.2187C13.486 16.6752 14.4196 15.9959 14.2184 15.1347L13.2524 10.9999C13.1678 10.638 13.2909 10.2592 13.5719 10.0161L16.7884 7.23385C17.4578 6.65487 17.1005 5.5558 16.2186 5.4811L11.9828 5.12228C11.6134 5.09099 11.2916 4.85787 11.1467 4.51658L9.48846 0.60997C9.14363 -0.202387 7.99228 -0.202386 7.64745 0.609971L5.98919 4.51658C5.84432 4.85787 5.52252 5.09099 5.15309 5.12228L0.917297 5.4811C0.0354405 5.5558 -0.321851 6.65487 0.347502 7.23385L3.56398 10.0161C3.84502 10.2592 3.96809 10.638 3.88355 10.9999L2.91749 15.1347C2.71627 15.9959 3.64993 16.6752 4.40742 16.2187L8.05179 14.0225Z" fill="url(#paint0_linear_3676_11063)"/>
<defs>
<linearGradient id="paint0_linear_3676_11063" x1="0.555778" y1="-2.98359" x2="16.0668" y2="19.7621" gradientUnits="userSpaceOnUse">
<stop stop-color="#FFDB5A"/>
<stop offset="1" stop-color="#FF825A"/>
</linearGradient>
</defs>
</svg>
