<svg width="109" height="62" viewBox="8 4 92 45" fill="none" xmlns="http://www.w3.org/2000/svg" preserveAspectRatio="xMidYMid meet"
>
    <path fill-rule="evenodd" clip-rule="evenodd" d="M30.676 4.09165C30.676 4.09126 30.6756 4.09094 30.6752 4.09094H22.4949C22.4945 4.09094 22.4941 4.09126 22.4941 4.09165C22.4941 4.09204 22.4938 4.09236 22.4934 4.09236H9.20437C8.63953 4.09236 8.18164 4.55025 8.18164 5.11509C8.18164 5.67993 8.63953 6.13782 9.20437 6.13782H20.4487C21.5784 6.13782 22.4941 7.0536 22.4941 8.18327V20.4546C22.4941 22.7139 24.3257 24.5455 26.585 24.5455C28.8444 24.5455 30.676 22.7139 30.676 20.4546V8.18327C30.676 7.0536 31.5917 6.13782 32.7214 6.13782H43.9771C44.5419 6.13782 44.9998 5.67993 44.9998 5.11509C44.9998 4.55025 44.5419 4.09236 43.9771 4.09236H30.6767C30.6763 4.09236 30.676 4.09204 30.676 4.09165Z" fill="white"/>
    <path fill-rule="evenodd" clip-rule="evenodd" d="M30.676 49.0902C30.676 49.0906 30.6756 49.0909 30.6752 49.0909H22.4949C22.4945 49.0909 22.4941 49.0906 22.4941 49.0902C22.4941 49.0898 22.4938 49.0895 22.4934 49.0895H19.4309C18.8661 49.0895 18.4082 48.6316 18.4082 48.0668C18.4082 47.502 18.8661 47.0441 19.4309 47.0441H20.4512C21.5795 47.0441 22.4941 46.1294 22.4941 45.0011V32.7273C22.4941 30.468 24.3257 28.6364 26.585 28.6364C28.8444 28.6364 30.676 30.468 30.676 32.7273V44.9986C30.676 46.1283 31.5917 47.0441 32.7214 47.0441H33.7491C34.3139 47.0441 34.7718 47.502 34.7718 48.0668C34.7718 48.6316 34.3139 49.0895 33.7491 49.0895H30.6767C30.6763 49.0895 30.676 49.0898 30.676 49.0902Z" fill="white"/>
    <path fill-rule="evenodd" clip-rule="evenodd" d="M51.1348 4.09165C51.1348 4.09126 51.1351 4.09094 51.1355 4.09094H59.3159C59.3163 4.09094 59.3166 4.09126 59.3166 4.09165C59.3166 4.09204 59.3169 4.09236 59.3173 4.09236H62.3819C62.9468 4.09236 63.4047 4.55025 63.4047 5.11509C63.4047 5.67993 62.9468 6.13782 62.3819 6.13782H61.3606C60.2317 6.13782 59.3166 7.05296 59.3166 8.18185V15.5492C59.3166 16.0104 59.4724 16.458 59.7588 16.8194L72.0784 32.3697C72.8973 33.4034 74.466 33.4034 75.2849 32.3697L87.5051 16.9449C87.7914 16.5835 87.9473 16.1359 87.9473 15.6747V8.18327C87.9473 7.0536 87.0315 6.13782 85.9018 6.13782H84.8762C84.3114 6.13782 83.8535 5.67993 83.8535 5.11509C83.8535 4.55025 84.3114 4.09236 84.8762 4.09236H87.9466C87.9469 4.09236 87.9473 4.09204 87.9473 4.09165C87.9473 4.09126 87.9476 4.09094 87.948 4.09094H96.1284C96.1288 4.09094 96.1291 4.09126 96.1291 4.09165C96.1291 4.09204 96.1294 4.09236 96.1298 4.09236H99.1944C99.7593 4.09236 100.217 4.55025 100.217 5.11509C100.217 5.67993 99.7593 6.13782 99.1944 6.13782H98.1731C97.0442 6.13782 96.1291 7.05296 96.1291 8.18185V45.0014C96.1291 46.1303 97.0442 47.0455 98.1731 47.0455H99.1944C99.7593 47.0455 100.217 47.5034 100.217 48.0682C100.217 48.6331 99.7593 49.0909 99.1944 49.0909H96.1291H87.9473H84.8762C84.3114 49.0909 83.8535 48.6331 83.8535 48.0682C83.8535 47.5034 84.3114 47.0455 84.8762 47.0455H85.9018C87.0315 47.0455 87.9473 46.1297 87.9473 45V25.96C87.9473 24.0216 85.5022 23.1705 84.2985 24.6899L75.2849 36.0672C74.466 37.1009 72.8973 37.1009 72.0784 36.0672L62.9653 24.5643C61.7616 23.045 59.3166 23.8961 59.3166 25.8345V45.0014C59.3166 46.1303 60.2317 47.0455 61.3607 47.0455H62.382C62.9469 47.0455 63.4047 47.5034 63.4047 48.0682C63.4047 48.6331 62.9468 49.0909 62.382 49.0909H59.3166H51.1348H48.0638C47.499 49.0909 47.0411 48.6331 47.0411 48.0682C47.0411 47.5034 47.499 47.0455 48.0638 47.0455H49.0893C50.219 47.0455 51.1348 46.1297 51.1348 45V8.18327C51.1348 7.0536 50.219 6.13782 49.0893 6.13782H48.0637C47.4989 6.13782 47.041 5.67993 47.041 5.11509C47.041 4.55025 47.4989 4.09236 48.0637 4.09236H51.1341C51.1344 4.09236 51.1348 4.09204 51.1348 4.09165Z" fill="white"/>
</svg>