<svg width="32" height="32" viewBox="0 0 32 32" fill="none" xmlns="http://www.w3.org/2000/svg">
<g filter="url(#filter0_d_607_12180)">
<path d="M14.2635 22.526C16.2447 22.5256 18.1762 21.9485 19.8261 20.8748C20.2496 20.5992 20.8147 20.629 21.172 20.9863L25.4788 25.293C25.8694 25.6835 26.5025 25.6834 26.893 25.293L27.2928 24.8931C27.6834 24.5026 27.6834 23.8694 27.2928 23.4789L22.9863 19.1725C22.6288 18.8152 22.5991 18.25 22.8749 17.8264C23.9492 16.1763 24.5266 14.2445 24.5271 12.263C24.5271 6.60423 19.9226 2 14.2635 2C8.60448 2 4 6.60423 4 12.263C4 17.9217 8.60448 22.526 14.2635 22.526ZM14.2635 4.56575C18.5088 4.56575 21.9612 8.01796 21.9612 12.263C21.9612 16.508 18.5088 19.9602 14.2635 19.9602C10.0183 19.9602 6.56588 16.508 6.56588 12.263C6.56588 8.01796 10.0183 4.56575 14.2635 4.56575Z" fill="#828282"/>
</g>
<defs>
<filter id="filter0_d_607_12180" x="0" y="0" width="31.5859" height="31.5858" filterUnits="userSpaceOnUse" color-interpolation-filters="sRGB">
<feFlood flood-opacity="0" result="BackgroundImageFix"/>
<feColorMatrix in="SourceAlpha" type="matrix" values="0 0 0 0 0 0 0 0 0 0 0 0 0 0 0 0 0 0 127 0" result="hardAlpha"/>
<feOffset dy="2"/>
<feGaussianBlur stdDeviation="2"/>
<feComposite in2="hardAlpha" operator="out"/>
<feColorMatrix type="matrix" values="0 0 0 0 0 0 0 0 0 0 0 0 0 0 0 0 0 0 0.2 0"/>
<feBlend mode="normal" in2="BackgroundImageFix" result="effect1_dropShadow_607_12180"/>
<feBlend mode="normal" in="SourceGraphic" in2="effect1_dropShadow_607_12180" result="shape"/>
</filter>
</defs>
</svg>
