<svg width="34" height="31" viewBox="0 0 34 31" fill="none" xmlns="http://www.w3.org/2000/svg">
<g filter="url(#filter0_d_607_11731)">
<path fill-rule="evenodd" clip-rule="evenodd" d="M4 3C4 2.44772 4.44772 2 5 2H7.32171C8.10181 2 8.81072 2.45358 9.13763 3.16188L9.38244 3.69231H27.4308C28.949 3.69231 29.9136 5.31727 29.1866 6.65001L25.2006 13.9577C24.8502 14.6002 24.1767 15 23.4448 15H13.5191L11.7345 17.2308L26.5769 17.2308C27.1292 17.2308 27.5769 17.6785 27.5769 18.2308C27.5769 18.7831 27.1292 19.2308 26.5769 19.2308H11.7345C10.0575 19.2308 9.12511 17.2909 10.1727 15.9814L11.8715 13.8579L7.83464 5.11137L7.32171 4H5C4.44772 4 4 3.55228 4 3ZM13.6783 13H23.4448L27.4308 5.69231H10.3055L13.6783 13ZM16.2308 22.881C16.2308 24.0493 15.2837 24.9964 14.1154 24.9964C12.9471 24.9964 12 24.0493 12 22.881C12 21.7127 12.9471 20.7656 14.1154 20.7656C15.2837 20.7656 16.2308 21.7127 16.2308 22.881ZM23.4279 24.9964C24.5962 24.9964 25.5433 24.0493 25.5433 22.881C25.5433 21.7127 24.5962 20.7656 23.4279 20.7656C22.2596 20.7656 21.3125 21.7127 21.3125 22.881C21.3125 24.0493 22.2596 24.9964 23.4279 24.9964Z" fill="white"/>
</g>
<defs>
<filter id="filter0_d_607_11731" x="0" y="0" width="33.4336" height="30.9963" filterUnits="userSpaceOnUse" color-interpolation-filters="sRGB">
<feFlood flood-opacity="0" result="BackgroundImageFix"/>
<feColorMatrix in="SourceAlpha" type="matrix" values="0 0 0 0 0 0 0 0 0 0 0 0 0 0 0 0 0 0 127 0" result="hardAlpha"/>
<feOffset dy="2"/>
<feGaussianBlur stdDeviation="2"/>
<feComposite in2="hardAlpha" operator="out"/>
<feColorMatrix type="matrix" values="0 0 0 0 0 0 0 0 0 0 0 0 0 0 0 0 0 0 0.2 0"/>
<feBlend mode="normal" in2="BackgroundImageFix" result="effect1_dropShadow_607_11731"/>
<feBlend mode="normal" in="SourceGraphic" in2="effect1_dropShadow_607_11731" result="shape"/>
</filter>
</defs>
</svg>
