<svg width="18" height="17" viewBox="0 0 18 17" fill="none" xmlns="http://www.w3.org/2000/svg">
<path d="M16.7955 7.23053C17.4635 6.65166 17.1071 5.55431 16.2264 5.47849L11.9814 5.113C11.6127 5.08125 11.2917 4.84848 11.1469 4.50792L9.48894 0.607834C9.14377 -0.204096 7.99287 -0.203782 7.64814 0.608335L5.98919 4.51658C5.84432 4.85787 5.52252 5.09099 5.15309 5.12228L0.917297 5.4811C0.0354401 5.5558 -0.321852 6.65487 0.347502 7.23385L3.56398 10.0161C3.84502 10.2592 3.96809 10.638 3.88355 10.9999L2.91749 15.1347C2.71627 15.9959 3.64993 16.6752 4.40742 16.2187L8.05179 14.0225C8.3693 13.8311 8.76661 13.8311 9.08411 14.0225L12.7323 16.221C13.4892 16.6772 14.4225 15.9992 14.2225 15.1383L13.2612 10.9986C13.1774 10.6374 13.3002 10.2595 13.5804 10.0166L16.7955 7.23053ZM9.08443 12.1533C8.76678 11.9615 8.36904 11.9613 8.05124 12.1529L5.81725 13.4995C5.43844 13.7279 4.97149 13.3881 5.07227 12.9574L5.66611 10.4196C5.75075 10.0579 5.62791 9.6791 5.34712 9.43589L3.37236 7.72545C3.03834 7.43614 3.21632 6.88751 3.65656 6.84937L6.26502 6.62341C6.63432 6.59142 6.95562 6.35777 7.09988 6.01632L8.10815 3.62975C8.28008 3.2228 8.85666 3.22245 9.02908 3.62919L10.0457 6.02736C10.1902 6.36824 10.5112 6.60139 10.8801 6.63334L13.4894 6.85937C13.9296 6.89751 14.1076 7.44614 13.7736 7.73545L11.7988 9.44589C11.518 9.6891 11.3952 10.0679 11.4798 10.4296L12.0734 12.9662C12.1742 13.397 11.7068 13.7368 11.3281 13.5081L9.08443 12.1533Z" fill="url(#paint0_linear_3676_9868)"/>
<defs>
<linearGradient id="paint0_linear_3676_9868" x1="0.555778" y1="-2.98359" x2="16.0668" y2="19.7621" gradientUnits="userSpaceOnUse">
<stop stop-color="#FFDB5A"/>
<stop offset="1" stop-color="#FF825A"/>
</linearGradient>
</defs>
</svg>
