<svg width="43" height="7" viewBox="0 0 43 7" fill="none" xmlns="http://www.w3.org/2000/svg">
<g clip-path="url(#clip0_744_12592)">
<path d="M22.703 0.03125C20.6889 0.03125 19.0547 1.55619 19.0547 3.43821C19.0547 5.43924 20.6179 6.93496 22.703 6.93496C24.7361 6.93496 26.3413 5.41938 26.3413 3.47753C26.3413 1.54716 24.7468 0.03125 22.703 0.03125Z" fill="url(#paint0_linear_744_12592)"/>
<g filter="url(#filter0_i_744_12592)">
<path d="M22.703 0.03125C20.6889 0.03125 19.0547 1.55619 19.0547 3.43821C19.0547 5.43924 20.6179 6.93496 22.703 6.93496C24.7361 6.93496 26.3413 5.41938 26.3413 3.47753C26.3413 1.54716 24.7468 0.03125 22.703 0.03125Z" fill="black"/>
</g>
<path d="M1.99254 0.153429H0.03125V6.78341H1.98229C3.01748 6.78341 3.76612 6.54573 4.42288 6.01845C5.20208 5.39211 5.66417 4.44768 5.66417 3.47159C5.66417 1.5142 4.15539 0.153429 1.99254 0.153429ZM3.55229 5.13295C3.13061 5.50167 2.58765 5.66104 1.72479 5.66104H1.36635V1.27612H1.72479C2.58765 1.27612 3.10978 1.42539 3.55229 1.81267C4.01379 2.21037 4.28901 2.82621 4.28901 3.46215C4.28901 4.09948 4.01379 4.7368 3.55229 5.13295ZM6.28011 6.78341H7.61311V0.153429H6.28028V6.78341H6.28011ZM10.8764 2.69663C10.0753 2.40898 9.83953 2.21924 9.83953 1.86265C9.83953 1.44477 10.2593 1.12692 10.8347 1.12692C11.2347 1.12692 11.5629 1.28588 11.9127 1.6625L12.6093 0.779115C12.0349 0.290988 11.3478 0.0428132 10.5982 0.0428132C9.38904 0.0428132 8.46513 0.858394 8.46513 1.94095C8.46513 2.85632 8.89563 3.32313 10.1475 3.76168C10.6709 3.9397 10.937 4.05845 11.0707 4.1396C11.3373 4.30866 11.4713 4.54642 11.4713 4.82454C11.4713 5.36224 11.0298 5.75929 10.434 5.75929C9.79788 5.75929 9.28557 5.45145 8.97768 4.87493L8.11701 5.68107C8.73127 6.55468 9.47 6.94367 10.4865 6.94367C11.8713 6.94367 12.8452 6.04775 12.8452 4.7657C12.8452 3.71171 12.395 3.23416 10.8764 2.69663ZM13.2656 3.47167C13.2656 5.42231 14.8458 6.93301 16.8774 6.93301C17.4518 6.93301 17.9441 6.82296 18.55 6.54565V5.0238C18.0158 5.54131 17.5438 5.74952 16.9383 5.74952C15.5949 5.74952 14.6402 4.80485 14.6402 3.46215C14.6402 2.19027 15.6247 1.18601 16.8774 1.18601C17.5124 1.18601 17.9953 1.40456 18.55 1.93143V0.409743C17.9653 0.122418 17.4824 0.00390625 16.9079 0.00390625C14.8867 0.00390625 13.2656 1.54513 13.2656 3.47167ZM29.3614 4.60698L27.5353 0.153429H26.0785L28.9827 6.95279H29.7002L32.655 0.153348H31.209L29.3614 4.60689V4.60698ZM33.2616 6.78349H37.0464V5.66104H34.5949V3.87027H36.9525V2.74766H34.5949V1.27603H37.0464V0.153511H33.2615V6.78349H33.2616ZM42.328 2.11009C42.328 0.86808 41.447 0.153429 39.9074 0.153429H37.9273V6.78341H39.2622V4.11877H39.4369L41.2824 6.78341H42.9238L40.7682 3.99073C41.775 3.79115 42.328 3.12477 42.328 2.11009ZM39.6505 3.20502H39.2622V1.19602H39.6718C40.5045 1.19602 40.9557 1.53503 40.9557 2.18025C40.9557 2.84582 40.5045 3.20502 39.6505 3.20502Z" fill="#0B1015"/>
</g>
<defs>
<filter id="filter0_i_744_12592" x="19.0547" y="0.03125" width="10.2871" height="9.9043" filterUnits="userSpaceOnUse" color-interpolation-filters="sRGB">
<feFlood flood-opacity="0" result="BackgroundImageFix"/>
<feBlend mode="normal" in="SourceGraphic" in2="BackgroundImageFix" result="shape"/>
<feColorMatrix in="SourceAlpha" type="matrix" values="0 0 0 0 0 0 0 0 0 0 0 0 0 0 0 0 0 0 127 0" result="hardAlpha"/>
<feOffset dx="3" dy="3"/>
<feGaussianBlur stdDeviation="4"/>
<feComposite in2="hardAlpha" operator="arithmetic" k2="-1" k3="1"/>
<feColorMatrix type="matrix" values="0 0 0 0 0 0 0 0 0 0 0 0 0 0 0 0 0 0 0.5 0"/>
<feBlend mode="normal" in2="shape" result="effect1_innerShadow_744_12592"/>
</filter>
<linearGradient id="paint0_linear_744_12592" x1="20.4693" y1="0.656933" x2="25.2306" y2="5.8457" gradientUnits="userSpaceOnUse">
<stop stop-color="#F34F26"/>
<stop offset="1" stop-color="#F69E35"/>
</linearGradient>
<clipPath id="clip0_744_12592">
<rect width="43" height="7" fill="white"/>
</clipPath>
</defs>
</svg>
