<svg width="30" height="23" viewBox="0 0 30 23" fill="none" xmlns="http://www.w3.org/2000/svg">
<g clip-path="url(#clip0_744_12587)">
<path d="M5.45172 22.8842V21.3619C5.45172 20.7783 5.09148 20.3978 4.47402 20.3978C4.16535 20.3978 3.8309 20.4993 3.59934 20.8291C3.41934 20.55 3.16211 20.3978 2.77621 20.3978C2.51887 20.3978 2.26176 20.4738 2.05586 20.753V20.4485H1.51562V22.8842H2.05586V21.5395C2.05586 21.1082 2.28742 20.9052 2.64766 20.9052C3.00766 20.9052 3.18789 21.1336 3.18789 21.5395V22.8842H3.72813V21.5395C3.72813 21.1082 3.98523 20.9052 4.31969 20.9052C4.67992 20.9052 4.85992 21.1336 4.85992 21.5395V22.8842H5.45172ZM13.4522 20.4485H12.5777V19.7128H12.0374V20.4485H11.5486V20.9305H12.0373V22.047C12.0373 22.6052 12.2689 22.935 12.8863 22.935C13.1179 22.935 13.375 22.8589 13.5552 22.7574L13.4008 22.3007C13.2464 22.4021 13.0664 22.4276 12.9378 22.4276C12.6805 22.4276 12.5777 22.2753 12.5777 22.0215V20.9305H13.4522V20.4485ZM18.0314 20.3977C17.7228 20.3977 17.517 20.55 17.3883 20.753V20.4485H16.8481V22.8842H17.3883V21.5142C17.3883 21.1082 17.5683 20.8799 17.9028 20.8799C18.0057 20.8799 18.1343 20.9053 18.2372 20.9306L18.3916 20.4232C18.2887 20.3978 18.1343 20.3978 18.0314 20.3978V20.3977ZM11.1113 20.6515C10.8539 20.4738 10.4938 20.3978 10.1079 20.3978C9.49059 20.3978 9.07902 20.7022 9.07902 21.1843C9.07902 21.5903 9.3877 21.8186 9.92793 21.8948L10.1852 21.9202C10.4682 21.9708 10.6225 22.047 10.6225 22.1739C10.6225 22.3514 10.4167 22.4783 10.0565 22.4783C9.69637 22.4783 9.41336 22.3514 9.23324 22.2246L8.97602 22.6305C9.25902 22.8335 9.64492 22.935 10.0307 22.935C10.7511 22.935 11.1627 22.6052 11.1627 22.1484C11.1627 21.7171 10.8283 21.4887 10.3137 21.4127L10.0565 21.3872C9.82492 21.3618 9.64492 21.3112 9.64492 21.159C9.64492 20.9813 9.82492 20.8799 10.1079 20.8799C10.4167 20.8799 10.7254 21.0067 10.8797 21.0828L11.1113 20.6515ZM25.4662 20.3978C25.1574 20.3978 24.9516 20.55 24.8229 20.753V20.4485H24.2827V22.8842H24.8229V21.5142C24.8229 21.1082 25.003 20.8799 25.3374 20.8799C25.4404 20.8799 25.5691 20.9053 25.672 20.9306L25.8263 20.4232C25.7234 20.3978 25.5691 20.3978 25.4662 20.3978ZM18.5717 21.6664C18.5717 22.4021 19.0861 22.935 19.8837 22.935C20.2438 22.935 20.5011 22.8589 20.7583 22.6559L20.5011 22.2246C20.2953 22.3768 20.0895 22.4529 19.8579 22.4529C19.4206 22.4529 19.1119 22.1484 19.1119 21.6664C19.1119 21.2097 19.4206 20.9052 19.8579 20.8799C20.0895 20.8799 20.2953 20.9559 20.5011 21.1082L20.7583 20.6769C20.5011 20.4738 20.2438 20.3978 19.8837 20.3978C19.0861 20.3978 18.5717 20.9306 18.5717 21.6664ZM23.5625 21.6664V20.4485H23.0222V20.753C22.8421 20.5247 22.5849 20.3978 22.2504 20.3978C21.5559 20.3978 21.0156 20.9306 21.0156 21.6664C21.0156 22.4021 21.5559 22.935 22.2504 22.935C22.6105 22.935 22.8679 22.8082 23.0222 22.5798V22.8842H23.5625V21.6664ZM21.5815 21.6664C21.5815 21.235 21.8645 20.8799 22.3275 20.8799C22.7649 20.8799 23.0737 21.2097 23.0737 21.6664C23.0737 22.0977 22.7649 22.4529 22.3275 22.4529C21.8645 22.4275 21.5815 22.0977 21.5815 21.6664ZM15.1245 20.3978C14.4041 20.3978 13.8896 20.9052 13.8896 21.6664C13.8896 22.4276 14.404 22.935 15.1502 22.935C15.5103 22.935 15.8705 22.8335 16.1535 22.6052L15.8962 22.2246C15.6904 22.3768 15.4332 22.4783 15.1759 22.4783C14.8415 22.4783 14.507 22.3261 14.4298 21.8946H16.2564V21.6918C16.2822 20.9052 15.8191 20.3978 15.1244 20.3978H15.1245ZM15.1245 20.8544C15.4588 20.8544 15.6905 21.0575 15.7418 21.4381H14.4556C14.507 21.1082 14.7386 20.8544 15.1245 20.8544ZM28.5275 21.6664V19.4844H27.9872V20.753C27.8071 20.5247 27.5499 20.3978 27.2154 20.3978C26.5209 20.3978 25.9806 20.9306 25.9806 21.6664C25.9806 22.4021 26.5209 22.935 27.2154 22.935C27.5757 22.935 27.8329 22.8082 27.9872 22.5798V22.8842H28.5275V21.6664ZM26.5466 21.6664C26.5466 21.235 26.8295 20.8799 27.2927 20.8799C27.73 20.8799 28.0387 21.2097 28.0387 21.6664C28.0387 22.0977 27.73 22.4529 27.2927 22.4529C26.8295 22.4275 26.5466 22.0977 26.5466 21.6664ZM8.48723 21.6664V20.4485H7.94699V20.753C7.76687 20.5247 7.50965 20.3978 7.1752 20.3978C6.48062 20.3978 5.94039 20.9306 5.94039 21.6664C5.94039 22.4021 6.48062 22.935 7.1752 22.935C7.53543 22.935 7.79266 22.8082 7.94699 22.5798V22.8842H8.48723V21.6664ZM6.48062 21.6664C6.48062 21.235 6.76363 20.8799 7.22664 20.8799C7.66398 20.8799 7.97277 21.2097 7.97277 21.6664C7.97277 22.0977 7.66398 22.4529 7.22664 22.4529C6.76363 22.4275 6.48062 22.0977 6.48062 21.6664Z" fill="black"/>
<path d="M10.9336 1.95312H19.0371V16.3138H10.9336V1.95312Z" fill="#FF5F00"/>
<path d="M11.4479 9.134C11.4479 6.21624 12.8371 3.62822 14.9722 1.95361C13.4031 0.735769 11.4223 0 9.26133 0C4.14176 0 0 4.08487 0 9.134C0 14.183 4.14176 18.268 9.26121 18.268C11.4221 18.268 13.403 17.5322 14.9722 16.3143C12.8371 14.6651 11.4479 12.0518 11.4479 9.134Z" fill="#EB001B"/>
<path d="M29.9683 9.134C29.9683 14.183 25.8266 18.268 20.7071 18.268C18.5462 18.268 16.5654 17.5322 14.9961 16.3143C17.157 14.6398 18.5205 12.0518 18.5205 9.134C18.5205 6.21624 17.1312 3.62822 14.9961 1.95361C16.5652 0.735769 18.5462 0 20.7071 0C25.8266 0 29.9684 4.1103 29.9684 9.134H29.9683Z" fill="#F79E1B"/>
</g>
<defs>
<clipPath id="clip0_744_12587">
<rect width="30" height="23" fill="white"/>
</clipPath>
</defs>
</svg>
