<svg width="42" height="14" viewBox="0 0 42 14" fill="none" xmlns="http://www.w3.org/2000/svg">
<path d="M21.7214 4.45709C21.6974 6.39955 23.4052 7.48346 24.6916 8.12796C26.0133 8.78917 26.4572 9.21321 26.452 9.80459C26.4421 10.7095 25.3977 11.1089 24.4204 11.1245C22.7153 11.1516 21.7238 10.6512 20.9357 10.2727L20.3214 13.2277C21.1122 13.6023 22.5765 13.929 24.0949 13.9434C27.6591 13.9434 29.991 12.1345 30.0036 9.32994C30.0175 5.77056 25.2149 5.57355 25.2477 3.98261C25.2591 3.5002 25.7068 2.98541 26.6879 2.85452C27.1735 2.78839 28.5141 2.73779 30.0339 3.45736L30.6305 0.598323C29.8131 0.292347 28.7626 -0.000640869 27.4547 -0.000640869C24.1 -0.000640869 21.7404 1.83285 21.7214 4.45709ZM36.3625 0.245624C35.7116 0.245624 35.1632 0.635937 34.9184 1.2349L29.8271 13.7334H33.3887L34.0974 11.7196H38.4497L38.8608 13.7334H42L39.2606 0.245624H36.3625ZM36.8607 3.88917L37.8886 8.95396H35.0736L36.8607 3.88917ZM17.4031 0.245792L14.5957 13.7332H17.9896L20.7957 0.245455H17.4031V0.245792ZM12.3823 0.245455L8.8497 9.42591L7.42071 1.62015C7.25304 0.74878 6.59088 0.245624 5.85556 0.245624H0.0808828L0 0.637286C1.18552 0.901768 2.53247 1.32835 3.34852 1.78478C3.84792 2.0636 3.99033 2.30733 4.15439 2.96989L6.86093 13.7334H10.4475L15.9462 0.245624H12.3823" fill="url(#paint0_linear_742_12586)"/>
<defs>
<linearGradient id="paint0_linear_742_12586" x1="19.3091" y1="14.2231" x2="19.724" y2="-0.0969684" gradientUnits="userSpaceOnUse">
<stop stop-color="#222357"/>
<stop offset="1" stop-color="#254AA5"/>
</linearGradient>
</defs>
</svg>
